<svg xmlns="http://www.w3.org/2000/svg" viewBox="0 0 122.88 121.91">
    <style>
		.form-lib-icon {fill: #848df0}
	</style>
    <title>form-lib</title>
    <path class="form-lib-icon" d="M30.11,3.73a1.21,1.21,0,1,1,0,2.42,1.23,1.23,0,0,1-1.22-1.21,1.22,1.22,0,0,1,1.22-1.21ZM79.39,86.65a.36.36,0,0,1-.48,0l-2.54-2.53-1.21,2.4c-.36.72-1,1-1.31.18L70.2,76.33c-.08-.21,0-.3.22-.22l10.37,3.65c.87.3.54.95-.18,1.31l-2.4,1.21,2.53,2.53a.38.38,0,0,1,0,.49l-1.35,1.35ZM43.66,71.88H79.22a1.59,1.59,0,0,1,1.57,1.58v4.06l-9.67-3.4a2.27,2.27,0,0,0-1-.14,2.21,2.21,0,0,0-2.06,1.89l0,.18a2.64,2.64,0,0,0,.14,1l2.23,6.3H43.66a1.58,1.58,0,0,1-1.57-1.58v-8.3a1.58,1.58,0,0,1,1.57-1.58ZM3.52,14.43H10v5H8.85a3.11,3.11,0,0,0-3.11,3.11V86.11a3.12,3.12,0,0,0,3.11,3.11h5.59V2.8a2.83,2.83,0,0,1,.82-2,2.85,2.85,0,0,1,2-.82h88.4a2.82,2.82,0,0,1,2.8,2.8V89.22H114a3.12,3.12,0,0,0,3.11-3.11V22.57A3.11,3.11,0,0,0,114,19.46H112.9v-5h6.46A3.53,3.53,0,0,1,122.88,18V99.14a3.53,3.53,0,0,1-3.52,3.53H3.52A3.53,3.53,0,0,1,0,99.14V18a3.53,3.53,0,0,1,3.52-3.52Zm13.3,74.79h89.23V9H16.82V89.22Zm31.7-71H46.63v2.58H44.4v-7H49l-.28,1.78H46.63v.94h1.89v1.66Zm3-.9a4.43,4.43,0,0,1,.71-2.78,3.21,3.21,0,0,1,2.58-.87,3.18,3.18,0,0,1,2.57.87,4.43,4.43,0,0,1,.71,2.78,7.18,7.18,0,0,1-.15,1.6A2.82,2.82,0,0,1,57.46,20a2,2,0,0,1-1,.7,5.72,5.72,0,0,1-3.21,0,2,2,0,0,1-1-.7,2.82,2.82,0,0,1-.52-1.12,7.18,7.18,0,0,1-.15-1.6ZM54,16.14V19h.93a1.57,1.57,0,0,0,.66-.1c.14-.07.21-.24.21-.49v-2.9h-.94a1.52,1.52,0,0,0-.65.11c-.14.07-.21.23-.21.49Zm13.29,4.63H64.79l-.92-2.07h-.48v2.07H61.17v-7h3.51a2.13,2.13,0,0,1,2.39,2.44,2.23,2.23,0,0,1-1,2.2l1.2,2.32Zm-3.85-5.18V17h.52a1.63,1.63,0,0,0,.58-.08.4.4,0,0,0,.19-.39v-.45a.4.4,0,0,0-.19-.39,1.63,1.63,0,0,0-.58-.08Zm8.93,5.18H70l.43-7h2.91l.86,3.54h.08l.87-3.54h2.91l.42,7H76.14L76,17.39h-.08l-.84,3.38H73.38l-.86-3.38h-.06l-.14,3.38ZM23.13,26.13H99.75a2.51,2.51,0,0,1,1.76.73h0a2.5,2.5,0,0,1,.73,1.76v5.64a2.47,2.47,0,0,1-.73,1.75h0a2.48,2.48,0,0,1-1.76.73H23.13A2.51,2.51,0,0,1,21.37,36h0a2.47,2.47,0,0,1-.73-1.75V28.62a2.51,2.51,0,0,1,.73-1.76h0a2.52,2.52,0,0,1,1.76-.73Zm0,29.63H99.75a2.51,2.51,0,0,1,1.76.73h0a2.48,2.48,0,0,1,.73,1.76v5.63a2.5,2.5,0,0,1-.73,1.76h0a2.48,2.48,0,0,1-1.76.73H23.13a2.51,2.51,0,0,1-1.76-.73h0a2.48,2.48,0,0,1-.73-1.76V58.25a2.5,2.5,0,0,1,.73-1.76h0a2.48,2.48,0,0,1,1.76-.73Zm77.15,1.63H22.6a.31.31,0,0,0-.33.33v6.69a.31.31,0,0,0,.33.33h77.68a.32.32,0,0,0,.23-.09.35.35,0,0,0,.1-.24V57.72a.35.35,0,0,0-.1-.24.32.32,0,0,0-.23-.09ZM23.13,40.94H99.75a2.51,2.51,0,0,1,1.76.73h0a2.47,2.47,0,0,1,.73,1.75v5.64a2.5,2.5,0,0,1-.73,1.76h0a2.48,2.48,0,0,1-1.76.73H23.13a2.51,2.51,0,0,1-1.76-.73h0a2.5,2.5,0,0,1-.73-1.76V43.43a2.47,2.47,0,0,1,.73-1.75h0a2.52,2.52,0,0,1,1.76-.73Zm77.15,1.63H22.6a.35.35,0,0,0-.24.1.32.32,0,0,0-.09.24V49.6a.32.32,0,0,0,.09.23.35.35,0,0,0,.24.1h77.68a.34.34,0,0,0,.33-.33V42.91a.33.33,0,0,0-.1-.24.33.33,0,0,0-.23-.1Zm0-14.81H22.6a.35.35,0,0,0-.24.1.32.32,0,0,0-.09.23v6.7a.32.32,0,0,0,.09.23.35.35,0,0,0,.24.1h77.68a.34.34,0,0,0,.33-.33v-6.7a.34.34,0,0,0-.33-.33Zm-75.39-24a1.21,1.21,0,1,1-1.22,1.21,1.22,1.22,0,0,1,1.22-1.21Zm-5.22,0a1.21,1.21,0,1,1-1.21,1.21,1.2,1.2,0,0,1,1.21-1.21Zm57.75,103.8c.08,5.53,2.36,10.48,8.53,14.38h-49c5-3.6,8.55-8,8.53-14.38Z"/>
</svg>
